HIERARCHY
ROOT Hips
{
 OFFSET 0.000000 0.000000 0.000000
 CHANNELS 6 Xposition Yposition Zposition Yrotation Xrotation Zrotation
 JOINT Chest
 {
  OFFSET 0.000000 9.585900 0.002600
  CHANNELS 3 Yrotation Xrotation Zrotation
  JOINT Chest2
  {
   OFFSET 0.000000 9.601200 -0.005300
   CHANNELS 3 Yrotation Xrotation Zrotation
   JOINT Chest3
   {
    OFFSET 0.000000 9.561800 0.000000
    CHANNELS 3 Yrotation Xrotation Zrotation
    JOINT Chest4
    {
     OFFSET 0.000000 9.552100 0.000000
     CHANNELS 3 Yrotation Xrotation Zrotation
     JOINT Neck
     {
      OFFSET 0.000000 14.453000 0.000000
      CHANNELS 3 Yrotation Xrotation Zrotation
      JOINT Head
      {
       OFFSET 0.000000 8.936500 -0.011300
       CHANNELS 3 Yrotation Xrotation Zrotation
       End Site
       {
        OFFSET 0.000000 17.073600 -0.006000
       }
      }
     }
     JOINT RightCollar
     {
      OFFSET -2.921100 9.558500 0.000000
      CHANNELS 3 Yrotation Xrotation Zrotation
      JOINT RightShoulder
      {
       OFFSET -13.519700 0.000000 0.000000
       CHANNELS 3 Yrotation Xrotation Zrotation
       JOINT RightElbow
       {
        OFFSET 0.000000 -29.696600 0.000000
        CHANNELS 3 Yrotation Xrotation Zrotation
        JOINT RightWrist
        {
         OFFSET 0.000000 -24.004700 0.000000
         CHANNELS 3 Yrotation Xrotation Zrotation
         End Site
         {
          OFFSET 0.000000 -17.728500 0.000000
         }
        }
       }
      }
     }
     JOINT LeftCollar
     {
      OFFSET 2.921100 9.558500 0.000000
      CHANNELS 3 Yrotation Xrotation Zrotation
      JOINT LeftShoulder
      {
       OFFSET 13.519700 0.000000 0.000000
       CHANNELS 3 Yrotation Xrotation Zrotation
       JOINT LeftElbow
       {
        OFFSET 0.000000 -29.696600 0.000000
        CHANNELS 3 Yrotation Xrotation Zrotation
        JOINT LeftWrist
        {
         OFFSET 0.000000 -24.004700 0.000000
         CHANNELS 3 Yrotation Xrotation Zrotation
         End Site
         {
          OFFSET 0.000000 -17.728500 0.000000
         }
        }
       }
      }
     }
    }
   }
  }
 }
 JOINT RightHip
 {
  OFFSET -7.771700 -0.012900 -0.001300
  CHANNELS 3 Yrotation Xrotation Zrotation
  JOINT RightKnee
  {
   OFFSET 0.000000 -40.869800 0.001200
   CHANNELS 3 Yrotation Xrotation Zrotation
   JOINT RightAnkle
   {
    OFFSET 0.000000 -39.717900 0.002100
    CHANNELS 3 Yrotation Xrotation Zrotation
    JOINT RightToe
    {
     OFFSET 0.000000 -4.965400 11.033500
     CHANNELS 3 Yrotation Xrotation Zrotation
     End Site
     {
      OFFSET 0.000000 -1.423100 5.872300
     }
    }
   }
  }
 }
 JOINT LeftHip
 {
  OFFSET 7.771700 -0.012900 -0.001300
  CHANNELS 3 Yrotation Xrotation Zrotation
  JOINT LeftKnee
  {
   OFFSET 0.000000 -40.869800 0.001200
   CHANNELS 3 Yrotation Xrotation Zrotation
   JOINT LeftAnkle
   {
    OFFSET 0.000000 -39.717900 0.002100
    CHANNELS 3 Yrotation Xrotation Zrotation
    JOINT LeftToe
    {
     OFFSET 0.000000 -4.965400 11.033500
     CHANNELS 3 Yrotation Xrotation Zrotation
     End Site
     {
      OFFSET 0.000000 -1.423100 5.872300
     }
    }
   }
  }
 }
}
MOTION
Frames: 15
Frame Time: 0.008333
-109.467463 57.311253 -4.902249 161.512226 -12.368528 -0.013147 4.046022 9.055223 0.977591 0.258316 0.587144 -0.001443 0.445859 1.013284 -0.000862 3.880538 8.753470 0.255765 1.519697 16.466561 -0.104676 2.855572 -5.199183 -0.726693 3.319613 9.423938 0.641709 -17.798250 -21.825696 -21.818818 -102.238124 -60.028811 135.450566 -8.723745 -3.095566 -19.464221 -5.401869 8.260121 -0.074516 19.767856 -9.925892 0.859830 77.898088 -51.054428 -125.954857 -0.250964 0.460838 -12.893540 -7.120327 -60.336757 3.971905 -35.587819 71.899876 -37.870600 -3.089153 -6.208505 1.237162 -1.670373 0.631100 -0.701414 0.541437 -62.340820 13.578393 42.604943 60.666430 36.438872 -20.061528 -7.599717 3.274114 1.364114 -0.849013 0.272661
-109.433446 57.306373 -4.891311 161.591173 -12.496795 -0.032789 4.178142 9.077049 1.030294 0.266524 0.594744 -0.001665 0.459728 1.025924 -0.001190 3.969026 8.790143 0.259715 1.727928 16.523770 0.002676 3.203183 -5.091324 -0.599089 3.467366 9.506694 0.528960 -17.138151 -22.220889 -22.705768 -99.281653 -60.360408 131.948881 -8.774744 -2.962028 -19.572773 -5.576070 8.119841 -0.157461 19.091696 -10.669211 0.574967 78.915611 -51.399583 -126.514002 -0.203650 0.305125 -12.328146 -6.819463 -60.220330 3.759844 -35.695943 71.905723 -37.972807 -3.142871 -6.177102 1.380326 -1.766931 0.615158 -0.727479 0.135449 -62.200981 13.684305 42.745996 60.509352 36.781037 -20.143437 -7.557451 3.070065 1.505969 -0.840341 0.286299
-109.397785 57.299729 -4.876237 161.661384 -12.622727 -0.059319 4.294353 9.085876 1.081524 0.274294 0.601764 -0.002160 0.472958 1.037682 -0.001903 4.052129 8.823465 0.259918 1.937359 16.588346 0.088114 3.560469 -4.969381 -0.512045 3.634069 9.553243 0.429595 -16.344087 -22.652591 -23.640763 -96.017674 -60.615011 128.059715 -8.803119 -2.831644 -19.630443 -5.748553 7.979283 -0.226321 18.494559 -11.422614 0.397348 79.984769 -51.729567 -127.170804 -0.139478 0.157732 -11.898521 -6.525354 -60.107780 3.594020 -35.844688 71.894248 -38.140412 -3.204782 -6.131932 1.533477 -1.835057 0.593978 -0.773081 -0.334823 -62.059938 13.859662 42.893119 60.358797 37.108416 -20.234667 -7.516255 2.879022 1.645668 -0.835968 0.294793
-109.361766 57.291090 -4.856811 161.731170 -12.744389 -0.088920 4.387022 9.081862 1.125969 0.281269 0.608644 -0.002882 0.484921 1.049186 -0.003106 4.124198 8.857604 0.255897 2.144244 16.655051 0.152354 3.920178 -4.842827 -0.462935 3.814247 9.571521 0.331628 -15.418558 -23.117249 -24.620048 -92.465787 -60.721425 123.806996 -8.840817 -2.727524 -19.677627 -5.905976 7.831919 -0.285080 17.967975 -12.189735 0.337905 81.059314 -52.030910 -127.892821 -0.058159 0.018768 -11.590613 -6.255404 -59.999955 3.476466 -36.042281 71.860589 -38.390080 -3.239374 -6.082365 1.648842 -1.954053 0.580104 -0.729936 -0.850918 -61.916422 14.074232 43.032586 60.206338 37.411772 -20.316196 -7.476360 2.700820 1.796735 -0.828919 0.302724
-109.326269 57.280652 -4.834202 161.800863 -12.867759 -0.116014 4.454970 9.073526 1.160151 0.287358 0.615660 -0.003965 0.495252 1.060976 -0.004951 4.182317 8.895524 0.245712 2.346991 16.719926 0.195939 4.279245 -4.718810 -0.450307 4.006407 9.569417 0.228207 -14.364736 -23.610687 -25.650257 -88.678021 -60.610171 119.243811 -8.916554 -2.669781 -19.760863 -6.047035 7.670105 -0.339592 17.505654 -12.974762 0.405004 82.116563 -52.287679 -128.652906 0.029014 -0.105253 -11.385846 -6.017890 -59.888507 3.403335 -36.275469 71.802673 -38.710668 -3.270336 -6.032377 1.789902 -2.040375 0.570472 -0.720474 -1.386120 -61.762304 14.297904 43.156605 60.049759 37.688028 -20.372113 -7.443980 2.537633 1.948470 -0.812934 0.309725
-109.293100 57.268680 -4.809854 161.870290 -12.997315 -0.129235 4.492135 9.070878 1.172222 0.292601 0.622891 -0.005543 0.504065 1.073107 -0.007513 4.227289 8.937687 0.228388 2.545538 16.780797 0.219345 4.637469 -4.601414 -0.473394 4.211348 9.542343 0.120173 -13.172524 -24.120189 -26.750677 -84.734157 -60.216371 114.441360 -9.051946 -2.669398 -19.923644 -6.173506 7.491697 -0.390000 17.109163 -13.784615 0.592059 83.145000 -52.492833 -129.419730 0.112295 -0.208918 -11.283108 -5.801960 -59.768034 3.351911 -36.528506 71.724542 -39.084360 -3.296492 -5.996146 1.948661 -2.100915 0.566250 -0.770706 -1.914827 -61.592098 14.501260 43.270407 59.887087 37.942516 -20.411488 -7.420286 2.387931 2.075316 -0.789196 0.313304
-109.262393 57.255331 -4.783987 161.938199 -13.132004 -0.128685 4.487693 9.108462 1.164925 0.308302 0.600848 -0.013292 0.511136 1.085287 -0.010850 4.258174 8.983263 0.204011 2.740418 16.836366 0.223811 4.995379 -4.492976 -0.530162 4.432312 9.482871 0.008161 -11.842731 -24.628971 -27.932377 -80.771355 -59.487662 109.535415 -9.260539 -2.716737 -20.210792 -6.282065 7.298475 -0.429838 16.779860 -14.626031 0.875521 84.116814 -52.651958 -130.155922 0.187234 -0.299669 -11.278486 -5.609947 -59.639819 3.319942 -36.785087 71.631854 -39.493481 -3.307132 -5.975125 2.112987 -2.187024 0.586152 -0.785948 -2.442952 -61.406632 14.691609 43.383413 59.716760 38.182015 -20.442960 -7.403927 2.244773 2.181056 -0.759423 0.317122
-109.233131 57.240881 -4.756957 161.994290 -13.272185 -0.118618 4.450109 9.217696 1.151437 0.321603 0.575145 -0.020137 0.514173 1.091357 -0.012730 4.295368 8.986129 0.150479 2.930431 16.886090 0.211424 5.350065 -4.394319 -0.616398 4.669093 9.387621 -0.110388 -10.409092 -25.120105 -29.183480 -76.971045 -58.410566 104.725411 -9.553301 -2.798499 -20.667496 -6.371882 7.087879 -0.453198 16.522601 -15.499398 1.229590 84.993389 -52.768060 -130.838273 0.252446 -0.381420 -11.350149 -5.447510 -59.503036 3.319919 -37.026122 71.526799 -39.918523 -3.300399 -5.962529 2.284740 -2.285838 0.616851 -0.809688 -2.977222 -61.206414 14.889734 43.504309 59.543449 38.411731 -20.463067 -7.394978 2.106425 2.284122 -0.725705 0.325216
-109.204654 57.225656 -4.729472 162.041269 -13.418296 -0.103565 4.446581 9.246957 1.121649 0.320018 0.563634 -0.036406 0.519951 1.106623 -0.019028 4.292934 9.059366 0.120770 3.113322 16.930019 0.185647 5.696124 -4.305423 -0.724940 4.917634 9.260762 -0.236522 -8.920787 -25.584669 -30.469932 -73.482921 -57.030094 100.183371 -9.940293 -2.912797 -21.324540 -6.444201 6.857582 -0.454967 16.343338 -16.400441 1.636484 85.745826 -52.837967 -131.457156 0.310296 -0.450950 -11.474231 -5.324646 -59.357347 3.356656 -37.248657 71.413819 -40.353237 -3.276405 -5.957242 2.461811 -2.398832 0.654542 -0.842204 -3.525183 -60.992456 15.104664 43.637687 59.369244 38.633009 -20.469844 -7.388879 1.974338 2.391863 -0.691509 0.339363
-109.178436 57.206589 -4.688083 162.082691 -13.483346 -0.102343 4.441564 9.129903 1.062969 0.308200 0.627117 -0.026226 0.524188 1.121249 -0.026273 4.286113 9.130044 0.086223 3.288106 16.968146 0.150150 6.030422 -4.226647 -0.848628 5.176827 9.110355 -0.367539 -7.435289 -26.025662 -31.748926 -70.386143 -55.415965 96.018899 -10.416634 -3.060409 -22.211478 -6.497160 6.612681 -0.432316 16.232369 -17.326483 2.082988 86.364403 -52.864959 -132.004235 0.366892 -0.511936 -11.621028 -5.281021 -59.289354 3.469620 -37.445233 71.301178 -40.784339 -3.075927 -6.004227 2.742985 -2.685183 0.728307 -1.001430 -4.129445 -60.851719 15.386068 43.783130 59.194584 38.842652 -20.599230 -7.368519 1.808042 2.619001 -0.669394 0.415360
-109.152788 57.190050 -4.659807 162.128983 -13.623128 -0.079119 4.404271 9.155986 0.988612 0.305760 0.657871 -0.020278 0.525748 1.131531 -0.032614 4.276951 9.175141 0.035859 3.454523 17.000479 0.106706 6.351887 -4.158036 -0.983974 5.446975 8.942775 -0.501868 -6.014372 -26.445440 -32.987199 -67.723151 -53.642908 92.310723 -10.973652 -3.236827 -23.341296 -6.528942 6.363359 -0.388855 16.175086 -18.276508 2.554051 86.851281 -52.858485 -132.474823 0.431402 -0.574345 -11.755759 -5.223181 -59.148503 3.540175 -37.605937 71.192645 -41.191727 -3.027113 -6.005702 2.969284 -2.808487 0.764580 -1.093046 -4.710459 -60.631983 15.635738 43.936894 59.025157 39.035593 -20.617437 -7.355708 1.684300 2.726004 -0.641011 0.446157
-109.130126 57.172986 -4.631381 162.161994 -13.751201 -0.042392 4.369495 9.203793 0.910040 0.306193 0.663151 -0.024139 0.526370 1.140412 -0.039189 4.262820 9.215118 -0.016470 3.611289 17.025962 0.056140 6.658088 -4.101527 -1.129380 5.725338 8.760061 -0.637086 -4.698944 -26.832048 -34.165944 -65.509948 -51.820292 89.084693 -11.607743 -3.443219 -24.673284 -6.544149 6.115371 -0.329394 16.166769 -19.245425 3.035628 87.226346 -52.826462 -132.878964 0.516188 -0.644384 -11.855456 -5.154856 -59.021445 3.593336 -37.729223 71.091844 -41.564252 -2.943286 -6.014122 3.150166 -2.962652 0.806826 -1.149523 -5.281890 -60.420403 15.891972 44.093812 58.866816 39.207559 -20.647860 -7.332327 1.564549 2.828366 -0.622864 0.483460
-109.112504 57.155576 -4.603739 162.189561 -13.866229 0.017292 4.333828 9.283629 0.830273 0.308778 0.630490 -0.049051 0.526841 1.148724 -0.045794 4.248521 9.252470 -0.068615 3.756129 17.042887 -0.000410 6.944621 -4.060568 -1.282198 6.003221 8.564336 -0.771457 -3.492457 -27.167497 -35.270818 -63.727590 -50.074242 86.303129 -12.290364 -3.689051 -26.141066 -6.552874 5.868867 -0.259285 16.193410 -20.226055 3.525761 87.530621 -52.778270 -133.239071 0.630540 -0.728796 -11.906298 -5.053470 -58.912334 3.597726 -37.826176 71.001859 -41.905547 -2.842610 -6.030863 3.275680 -3.139250 0.856671 -1.160260 -5.820959 -60.220926 16.125203 44.245426 58.719092 39.354721 -20.707396 -7.292257 1.443282 2.926309 -0.619186 0.529734
-109.103478 57.137678 -4.576939 162.210232 -13.960628 0.118521 4.298698 9.346709 0.708782 0.314941 0.599976 -0.071655 0.527754 1.157117 -0.052240 4.237619 9.289007 -0.118802 3.888490 17.051238 -0.061863 7.209991 -4.035298 -1.440033 6.273185 8.363216 -0.907360 -2.383952 -27.437220 -36.288935 -62.359184 -48.493049 83.927986 -12.969019 -3.962026 -27.678547 -6.564577 5.627725 -0.187098 16.235695 -21.217959 4.030027 87.797320 -52.721574 -133.573482 0.780904 -0.838553 -11.896084 -4.884173 -58.830209 3.464372 -37.781930 70.959618 -42.083008 -2.667737 -6.066073 3.460242 -3.401487 0.921007 -1.217501 -6.274988 -60.044490 16.281261 44.384318 58.576165 39.476791 -20.797242 -7.231544 1.318603 3.036604 -0.630830 0.589471
-109.094740 57.119084 -4.547207 162.233727 -14.028235 0.202862 4.267448 9.347876 0.583533 0.324655 0.605461 -0.072240 0.529474 1.165695 -0.058335 4.232354 9.324851 -0.165448 4.009775 17.052012 -0.126527 7.456069 -4.023904 -1.600434 6.533001 8.162221 -1.048447 -1.380911 -27.634588 -37.205545 -61.387886 -47.130497 81.940794 -13.592683 -4.224662 -29.201380 -6.584685 5.390655 -0.120345 16.282924 -22.216888 4.553169 88.048665 -52.651134 -133.893120 0.965137 -0.975275 -11.819188 -4.746702 -58.775604 3.362570 -37.726020 70.924492 -42.240119 -2.513785 -6.095320 3.651915 -3.651466 0.977656 -1.288325 -6.733521 -59.894700 16.454739 44.506175 58.433799 39.576667 -20.861027 -7.174418 1.205921 3.142637 -0.629013 0.649501
